<svg width="26" height="35" viewBox="0 0 26 35" fill="none" xmlns="http://www.w3.org/2000/svg">
<g id="award-solid 1" clip-path="url(#clip0_118_253)">
<path id="Vector" d="M11.7677 0.375732C12.5125 -0.123291 13.4875 -0.123291 14.2323 0.375732L15.4375 1.17554C15.8438 1.44214 16.3177 1.57202 16.7985 1.54468L18.2406 1.45581C19.1344 1.40112 19.974 1.89331 20.3735 2.69995L21.0235 4.00562C21.2401 4.44312 21.5922 4.79175 22.0188 5.0105L23.3255 5.67358C24.1245 6.0769 24.612 6.92456 24.5578 7.8269L24.4698 9.28296C24.4427 9.76831 24.5714 10.2537 24.8354 10.657L25.6344 11.8738C26.1287 12.6257 26.1287 13.6101 25.6344 14.3621L24.8354 15.5857C24.5714 15.9958 24.4427 16.4744 24.4698 16.9597L24.5578 18.4158C24.612 19.3181 24.1245 20.1658 23.3255 20.5691L22.0323 21.2253C21.599 21.4441 21.2537 21.7996 21.037 22.2302L20.3802 23.5496C19.9808 24.3562 19.1412 24.8484 18.2474 24.7937L16.8052 24.7048C16.3245 24.6775 15.8438 24.8074 15.4443 25.074L14.2391 25.8806C13.4943 26.3796 12.5193 26.3796 11.7745 25.8806L10.5625 25.074C10.1563 24.8074 9.68231 24.6775 9.20159 24.7048L7.7594 24.7937C6.86565 24.8484 6.02607 24.3562 5.62659 23.5496L4.97659 22.2439C4.75992 21.8064 4.40784 21.4578 3.98127 21.239L2.6745 20.5759C1.87554 20.1726 1.38804 19.325 1.44221 18.4226L1.53023 16.9666C1.55731 16.4812 1.42867 15.9959 1.16461 15.5925L0.372419 14.3689C-0.121852 13.6169 -0.121852 12.6326 0.372419 11.8806L1.16461 10.6638C1.42867 10.2537 1.55731 9.77515 1.53023 9.28979L1.44221 7.83374C1.38804 6.9314 1.87554 6.08374 2.6745 5.68042L3.96773 5.02417C4.40106 4.79858 4.75315 4.44312 4.96982 4.00562L5.61982 2.69995C6.01929 1.89331 6.85888 1.40112 7.75263 1.45581L9.19482 1.54468C9.67554 1.57202 10.1563 1.44214 10.5558 1.17554L11.7677 0.375732ZM18.4167 13.1248C18.4167 11.6744 17.846 10.2834 16.8302 9.25777C15.8144 8.23218 14.4366 7.65601 13 7.65601C11.5634 7.65601 10.1857 8.23218 9.16986 9.25777C8.15404 10.2834 7.58336 11.6744 7.58336 13.1248C7.58336 14.5752 8.15404 15.9662 9.16986 16.9917C10.1857 18.0173 11.5634 18.5935 13 18.5935C14.4366 18.5935 15.8144 18.0173 16.8302 16.9917C17.846 15.9662 18.4167 14.5752 18.4167 13.1248ZM0.088044 30.2009L3.00627 23.1941C3.01981 23.2009 3.02659 23.2078 3.03336 23.2214L3.68336 24.5271C4.47554 26.113 6.12086 27.0769 7.88127 26.9744L9.32346 26.8855C9.337 26.8855 9.35732 26.8855 9.37086 26.8992L10.5761 27.7058C10.9214 27.9314 11.287 28.1091 11.6662 28.2322L9.12034 34.3367C8.96461 34.7126 8.61929 34.9656 8.21982 34.9998C7.82034 35.0339 7.4344 34.8494 7.21773 34.5076L5.03752 31.1375L1.23909 31.7048C0.853148 31.7595 0.467211 31.6023 0.223461 31.2947C-0.0202893 30.9871 -0.0676852 30.5632 0.0812732 30.2009H0.088044ZM16.8797 34.3298L14.3339 28.2322C14.713 28.1091 15.0787 27.9382 15.424 27.7058L16.6292 26.8992C16.6427 26.8923 16.6563 26.8855 16.6766 26.8855L18.1188 26.9744C19.8792 27.0769 21.5245 26.113 22.3167 24.5271L22.9667 23.2214C22.9735 23.2078 22.9802 23.2009 22.9938 23.1941L25.9188 30.2009C26.0677 30.5632 26.0136 30.9802 25.7766 31.2947C25.5396 31.6091 25.1469 31.7664 24.761 31.7048L20.9625 31.1375L18.7823 34.5007C18.5656 34.8425 18.1797 35.0271 17.7802 34.9929C17.3808 34.9587 17.0354 34.699 16.8797 34.3298Z" fill="#0071FF"/>
</g>
<defs>
<clipPath id="clip0_118_253">
<rect width="26" height="35" fill="white"/>
</clipPath>
</defs>
</svg>
