<svg width="36" height="36" viewBox="0 0 36 36" fill="none" xmlns="http://www.w3.org/2000/svg">
<g id="clock-solid 1" clip-path="url(#clip0_118_243)">
<path id="Vector" d="M18 0C22.7739 0 27.3523 1.89642 30.7279 5.27208C34.1036 8.64773 36 13.2261 36 18C36 22.7739 34.1036 27.3523 30.7279 30.7279C27.3523 34.1036 22.7739 36 18 36C13.2261 36 8.64773 34.1036 5.27208 30.7279C1.89642 27.3523 0 22.7739 0 18C0 13.2261 1.89642 8.64773 5.27208 5.27208C8.64773 1.89642 13.2261 0 18 0ZM16.3125 8.4375V18C16.3125 18.5625 16.5938 19.0898 17.0648 19.4062L23.8148 23.9062C24.5883 24.4266 25.6359 24.2156 26.1562 23.4352C26.6766 22.6547 26.4656 21.6141 25.6852 21.0938L19.6875 17.1V8.4375C19.6875 7.50234 18.9352 6.75 18 6.75C17.0648 6.75 16.3125 7.50234 16.3125 8.4375Z" fill="#E50C4F"/>
</g>
<defs>
<clipPath id="clip0_118_243">
<rect width="36" height="36" fill="white"/>
</clipPath>
</defs>
</svg>
