<svg width="35" height="35" viewBox="0 0 35 35" fill="none" xmlns="http://www.w3.org/2000/svg">
<rect width="35" height="35" rx="17.5" fill="#E50C4F"/>
<path d="M11.84 25L21.4 11H23.36L13.8 25H11.84ZM13 18.54C12.3467 18.54 11.7667 18.38 11.26 18.06C10.7533 17.74 10.36 17.2933 10.08 16.72C9.8 16.1467 9.66 15.4733 9.66 14.7C9.66 13.9267 9.8 13.2533 10.08 12.68C10.36 12.1067 10.7533 11.66 11.26 11.34C11.7667 11.02 12.3467 10.86 13 10.86C13.68 10.86 14.2667 11.02 14.76 11.34C15.2667 11.66 15.66 12.1067 15.94 12.68C16.22 13.2533 16.36 13.9267 16.36 14.7C16.36 15.4733 16.22 16.1467 15.94 16.72C15.66 17.2933 15.2667 17.74 14.76 18.06C14.2667 18.38 13.68 18.54 13 18.54ZM13.02 17.14C13.5533 17.14 13.9667 16.9333 14.26 16.52C14.5667 16.0933 14.72 15.4867 14.72 14.7C14.72 13.9133 14.5667 13.3133 14.26 12.9C13.9667 12.4733 13.5533 12.26 13.02 12.26C12.4867 12.26 12.06 12.4733 11.74 12.9C11.4333 13.3267 11.28 13.9267 11.28 14.7C11.28 15.4733 11.4333 16.0733 11.74 16.5C12.06 16.9267 12.4867 17.14 13.02 17.14ZM22.18 25.14C21.5267 25.14 20.9467 24.98 20.44 24.66C19.9333 24.34 19.54 23.8933 19.26 23.32C18.98 22.7467 18.84 22.0733 18.84 21.3C18.84 20.5267 18.98 19.8533 19.26 19.28C19.54 18.7067 19.9333 18.26 20.44 17.94C20.9467 17.62 21.5267 17.46 22.18 17.46C22.86 17.46 23.4467 17.62 23.94 17.94C24.4467 18.26 24.84 18.7067 25.12 19.28C25.4 19.8533 25.54 20.5267 25.54 21.3C25.54 22.0733 25.4 22.7467 25.12 23.32C24.84 23.8933 24.4467 24.34 23.94 24.66C23.4467 24.98 22.86 25.14 22.18 25.14ZM22.18 23.74C22.7133 23.74 23.1333 23.5267 23.44 23.1C23.7467 22.6733 23.9 22.0733 23.9 21.3C23.9 20.5267 23.7467 19.9267 23.44 19.5C23.1333 19.0733 22.7133 18.86 22.18 18.86C21.66 18.86 21.24 19.0733 20.92 19.5C20.6133 19.9133 20.46 20.5133 20.46 21.3C20.46 22.0867 20.6133 22.6933 20.92 23.12C21.24 23.5333 21.66 23.74 22.18 23.74Z" fill="#FFEEF2"/>
</svg>
