<svg width="36" height="36" viewBox="0 0 36 36" fill="none" xmlns="http://www.w3.org/2000/svg">
<g id="sliders-solid 1">
<path id="Vector" d="M0 29.25C0 30.4945 1.00547 31.5 2.25 31.5H6.09609C6.96094 33.4898 8.94375 34.875 11.25 34.875C13.5562 34.875 15.5391 33.4898 16.4039 31.5H33.75C34.9945 31.5 36 30.4945 36 29.25C36 28.0055 34.9945 27 33.75 27H16.4039C15.5391 25.0102 13.5562 23.625 11.25 23.625C8.94375 23.625 6.96094 25.0102 6.09609 27H2.25C1.00547 27 0 28.0055 0 29.25ZM9 29.25C9 28.6533 9.23705 28.081 9.65901 27.659C10.081 27.2371 10.6533 27 11.25 27C11.8467 27 12.419 27.2371 12.841 27.659C13.2629 28.081 13.5 28.6533 13.5 29.25C13.5 29.8467 13.2629 30.419 12.841 30.841C12.419 31.2629 11.8467 31.5 11.25 31.5C10.6533 31.5 10.081 31.2629 9.65901 30.841C9.23705 30.419 9 29.8467 9 29.25ZM22.5 18C22.5 17.4033 22.7371 16.831 23.159 16.409C23.581 15.9871 24.1533 15.75 24.75 15.75C25.3467 15.75 25.919 15.9871 26.341 16.409C26.7629 16.831 27 17.4033 27 18C27 18.5967 26.7629 19.169 26.341 19.591C25.919 20.0129 25.3467 20.25 24.75 20.25C24.1533 20.25 23.581 20.0129 23.159 19.591C22.7371 19.169 22.5 18.5967 22.5 18ZM24.75 12.375C22.4438 12.375 20.4609 13.7602 19.5961 15.75H2.25C1.00547 15.75 0 16.7555 0 18C0 19.2445 1.00547 20.25 2.25 20.25H19.5961C20.4609 22.2398 22.4438 23.625 24.75 23.625C27.0562 23.625 29.0391 22.2398 29.9039 20.25H33.75C34.9945 20.25 36 19.2445 36 18C36 16.7555 34.9945 15.75 33.75 15.75H29.9039C29.0391 13.7602 27.0562 12.375 24.75 12.375ZM13.5 9C12.9033 9 12.331 8.76295 11.909 8.34099C11.4871 7.91903 11.25 7.34674 11.25 6.75C11.25 6.15326 11.4871 5.58097 11.909 5.15901C12.331 4.73705 12.9033 4.5 13.5 4.5C14.0967 4.5 14.669 4.73705 15.091 5.15901C15.5129 5.58097 15.75 6.15326 15.75 6.75C15.75 7.34674 15.5129 7.91903 15.091 8.34099C14.669 8.76295 14.0967 9 13.5 9ZM18.6539 4.5C17.7891 2.51016 15.8062 1.125 13.5 1.125C11.1938 1.125 9.21094 2.51016 8.34609 4.5H2.25C1.00547 4.5 0 5.50547 0 6.75C0 7.99453 1.00547 9 2.25 9H8.34609C9.21094 10.9898 11.1938 12.375 13.5 12.375C15.8062 12.375 17.7891 10.9898 18.6539 9H33.75C34.9945 9 36 7.99453 36 6.75C36 5.50547 34.9945 4.5 33.75 4.5H18.6539Z" fill="#FF3300"/>
</g>
</svg>
