<svg width="19" height="19" viewBox="0 0 19 19" fill="none" xmlns="http://www.w3.org/2000/svg">
<g id="paper-plane-solid 1" clip-path="url(#clip0_52_174)">
<path id="Vector" d="M18.484 0.207954C18.8588 0.46772 19.0554 0.916743 18.9849 1.36577L16.6099 16.8033C16.5543 17.1632 16.3353 17.4787 16.0162 17.6568C15.697 17.8349 15.3148 17.8572 14.9771 17.7162L10.5388 15.8718L7.99685 18.6216C7.66657 18.9816 7.14704 19.1003 6.6906 18.9222C6.23415 18.7441 5.93728 18.3025 5.93728 17.8126V14.7103C5.93728 14.5619 5.99294 14.4208 6.09314 14.3132L12.3127 7.52592C12.5279 7.29213 12.5205 6.93217 12.2978 6.70952C12.0752 6.48686 11.7152 6.47202 11.4814 6.68354L3.93337 13.3892L0.656612 11.749C0.263253 11.5523 0.010909 11.1589 -0.000223837 10.721C-0.0113566 10.2831 0.218722 9.87495 0.597237 9.656L17.2222 0.156001C17.6193 -0.0703659 18.1092 -0.0481003 18.484 0.207954Z" fill="#E50C4F"/>
</g>
<defs>
<clipPath id="clip0_52_174">
<rect width="19" height="19" fill="white"/>
</clipPath>
</defs>
</svg>
