<svg width="18" height="19" viewBox="0 0 18 19" fill="none" xmlns="http://www.w3.org/2000/svg">
<g id="vk 1" clip-path="url(#clip0_52_170)">
<path id="Vector" d="M1.26525 1.29161C0 2.58322 0 4.66229 0 8.82V9.555C0 13.7127 0 15.7918 1.26525 17.0834C2.5305 18.375 4.56714 18.375 8.64 18.375H9.36C13.4329 18.375 15.4695 18.375 16.7347 17.0834C18 15.7918 18 13.7127 18 9.555V8.82C18 4.66229 18 2.58322 16.7347 1.29161C15.4695 0 13.4329 0 9.36 0H8.64C4.56714 0 2.5305 0 1.26525 1.29161ZM3.0375 5.58908H5.09251C5.16001 9.09562 6.67499 10.5809 7.875 10.8872V5.58908H9.81V8.61328C10.995 8.48314 12.24 7.10501 12.66 5.58908H14.595C14.4367 6.37526 14.1212 7.11962 13.6682 7.7757C13.2153 8.43175 12.6346 8.98533 11.9625 9.40189C12.7129 9.78218 13.3757 10.3208 13.9071 10.982C14.4384 11.6432 14.8263 12.4121 15.045 13.2377H12.915C12.7187 12.5205 12.3193 11.8785 11.7669 11.3923C11.2145 10.906 10.5337 10.5971 9.81 10.5044V13.2377H9.57749C5.47501 13.2377 3.135 10.3666 3.0375 5.58908Z" fill="#E50C4F"/>
</g>
<defs>
<clipPath id="clip0_52_170">
<rect width="18" height="19" fill="white"/>
</clipPath>
</defs>
</svg>
