<svg width="10" height="14" viewBox="0 0 10 14" fill="none" xmlns="http://www.w3.org/2000/svg">
<g id="xmark-solid 1">
<path id="Vector" d="M8.92204 4.11797C9.24756 3.77618 9.24756 3.2211 8.92204 2.8793C8.59652 2.53751 8.06787 2.53751 7.74235 2.8793L5.00016 5.76133L2.25537 2.88204C1.92985 2.54024 1.4012 2.54024 1.07568 2.88204C0.750163 3.22383 0.750163 3.77891 1.07568 4.12071L3.82048 7.00001L1.07829 9.88204C0.752767 10.2238 0.752767 10.7789 1.07829 11.1207C1.40381 11.4625 1.93245 11.4625 2.25798 11.1207L5.00016 8.23868L7.74495 11.118C8.07048 11.4598 8.59912 11.4598 8.92464 11.118C9.25016 10.7762 9.25016 10.2211 8.92464 9.8793L6.17985 7.00001L8.92204 4.11797Z" fill="#E50C4F"/>
</g>
</svg>
