<svg width="19" height="17" viewBox="0 0 19 17" fill="none" xmlns="http://www.w3.org/2000/svg">
<g id="youtube 1">
<path id="Vector" d="M18.131 4.11994C17.9238 3.33469 17.3133 2.71625 16.5382 2.50637C15.1334 2.125 9.49997 2.125 9.49997 2.125C9.49997 2.125 3.8666 2.125 2.46169 2.50637C1.68662 2.71628 1.07618 3.33469 0.868991 4.11994C0.492554 5.54326 0.492554 8.51288 0.492554 8.51288C0.492554 8.51288 0.492554 11.4825 0.868991 12.9058C1.07618 13.6911 1.68662 14.2838 2.46169 14.4936C3.8666 14.875 9.49997 14.875 9.49997 14.875C9.49997 14.875 15.1333 14.875 16.5382 14.4936C17.3133 14.2838 17.9238 13.6911 18.131 12.9058C18.5074 11.4825 18.5074 8.51288 18.5074 8.51288C18.5074 8.51288 18.5074 5.54326 18.131 4.11994ZM7.65753 11.2091V5.81669L12.3659 8.51295L7.65753 11.2091Z" fill="#E50C4F"/>
</g>
</svg>
