<svg width="100" height="100" viewBox="0 0 100 100" fill="none" xmlns="http://www.w3.org/2000/svg">
<rect width="100" height="100" rx="50" fill="white"/>
<g clip-path="url(#clip0_95_429)">
<path d="M57.3125 47.1562C57.3125 49.3975 56.585 51.4678 55.3594 53.1475L61.541 59.334C62.1514 59.9443 62.1514 60.9355 61.541 61.5459C60.9307 62.1562 59.9395 62.1562 59.3291 61.5459L53.1475 55.3594C51.4678 56.5898 49.3975 57.3125 47.1562 57.3125C41.5459 57.3125 37 52.7666 37 47.1562C37 41.5459 41.5459 37 47.1562 37C52.7666 37 57.3125 41.5459 57.3125 47.1562ZM47.1562 54.1875C48.0796 54.1875 48.9939 54.0056 49.847 53.6523C50.7001 53.2989 51.4752 52.781 52.1281 52.1281C52.781 51.4752 53.2989 50.7001 53.6523 49.847C54.0056 48.9939 54.1875 48.0796 54.1875 47.1562C54.1875 46.2329 54.0056 45.3186 53.6523 44.4655C53.2989 43.6124 52.781 42.8373 52.1281 42.1844C51.4752 41.5315 50.7001 41.0136 49.847 40.6602C48.9939 40.3069 48.0796 40.125 47.1562 40.125C46.2329 40.125 45.3186 40.3069 44.4655 40.6602C43.6124 41.0136 42.8373 41.5315 42.1844 42.1844C41.5315 42.8373 41.0136 43.6124 40.6602 44.4655C40.3069 45.3186 40.125 46.2329 40.125 47.1562C40.125 48.0796 40.3069 48.9939 40.6602 49.847C41.0136 50.7001 41.5315 51.4752 42.1844 52.1281C42.8373 52.781 43.6124 53.2989 44.4655 53.6523C45.3186 54.0056 46.2329 54.1875 47.1562 54.1875Z" fill="#FC9BB3"/>
</g>
<defs>
<clipPath id="clip0_95_429">
<rect width="25" height="25" fill="white" transform="translate(37 37)"/>
</clipPath>
</defs>
</svg>
